<svg width="18" height="18" viewBox="0 0 18 18" fill="none" xmlns="http://www.w3.org/2000/svg">
<path d="M3 15C2.5875 15 2.2345 14.8533 1.941 14.5597C1.647 14.2657 1.5 13.9125 1.5 13.5V4.5C1.5 4.0875 1.647 3.7345 1.941 3.441C2.2345 3.147 2.5875 3 3 3H15C15.4125 3 15.7658 3.147 16.0598 3.441C16.3533 3.7345 16.5 4.0875 16.5 4.5V13.5C16.5 13.9125 16.3533 14.2657 16.0598 14.5597C15.7658 14.8533 15.4125 15 15 15H3ZM15 6L9.39375 9.50625C9.33125 9.54375 9.2655 9.57175 9.1965 9.59025C9.128 9.60925 9.0625 9.61875 9 9.61875C8.9375 9.61875 8.872 9.60925 8.8035 9.59025C8.7345 9.57175 8.66875 9.54375 8.60625 9.50625L3 6V13.5H15V6ZM9 8.25L15 4.5H3L9 8.25ZM3 6.1875V5.08125V5.1V5.09025V6.1875Z" fill="black"/>
</svg>
