<svg width="18" height="18" viewBox="0 0 18 18" fill="none" xmlns="http://www.w3.org/2000/svg">
<path d="M11.625 0.75H5.625C5.12772 0.75 4.65081 0.947544 4.29917 1.29917C3.94754 1.65081 3.75 2.12772 3.75 2.625V15.375C3.75 15.8723 3.94754 16.3492 4.29917 16.7008C4.65081 17.0525 5.12772 17.25 5.625 17.25H11.625C12.1223 17.25 12.5992 17.0525 12.9508 16.7008C13.3025 16.3492 13.5 15.8723 13.5 15.375V2.625C13.5 2.12772 13.3025 1.65081 12.9508 1.29917C12.5992 0.947544 12.1223 0.75 11.625 0.75ZM8.625 16.5C8.0025 16.5 7.5 15.9975 7.5 15.375C7.5 14.7525 8.0025 14.25 8.625 14.25C9.2475 14.25 9.75 14.7525 9.75 15.375C9.75 15.9975 9.2475 16.5 8.625 16.5ZM12 13.5H5.25V3H12V13.5Z" fill="black"/>
</svg>
